<?xml version="1.0" encoding="UTF-8" standalone="no"?>
<!-- Created with Inkscape (http://www.inkscape.org/) -->

<svg
   xmlns:dc="http://purl.org/dc/elements/1.1/"
   xmlns:cc="http://creativecommons.org/ns#"
   xmlns:rdf="http://www.w3.org/1999/02/22-rdf-syntax-ns#"
   xmlns:svg="http://www.w3.org/2000/svg"
   xmlns="http://www.w3.org/2000/svg"
   xmlns:sodipodi="http://sodipodi.sourceforge.net/DTD/sodipodi-0.dtd"
   xmlns:inkscape="http://www.inkscape.org/namespaces/inkscape"
   width="13.375"
   height="12.53125"
   id="svg4128"
   version="1.1"
   inkscape:version="0.48.4 r9939"
   sodipodi:docname="mail.svg">
  <defs
     id="defs4130" />
  <sodipodi:namedview
     id="base"
     pagecolor="#ffffff"
     bordercolor="#666666"
     borderopacity="1.0"
     inkscape:pageopacity="0.0"
     inkscape:pageshadow="2"
     inkscape:zoom="7.5124586"
     inkscape:cx="-2.9716402"
     inkscape:cy="8.9149207"
     inkscape:document-units="px"
     inkscape:current-layer="layer1"
     showgrid="false"
     inkscape:window-width="518"
     inkscape:window-height="453"
     inkscape:window-x="75"
     inkscape:window-y="75"
     inkscape:window-maximized="0"
     fit-margin-top="0"
     fit-margin-left="0"
     fit-margin-right="0"
     fit-margin-bottom="0" />
  <metadata
     id="metadata4133">
    <rdf:RDF>
      <cc:Work
         rdf:about="">
        <dc:format>image/svg+xml</dc:format>
        <dc:type
           rdf:resource="http://purl.org/dc/dcmitype/StillImage" />
        <dc:title />
      </cc:Work>
    </rdf:RDF>
  </metadata>
  <g
     inkscape:label="Livello 1"
     inkscape:groupmode="layer"
     id="layer1"
     transform="translate(-419.03125,-780.375)">
    <rect
       style="fill:none;stroke:#000000;stroke-width:0.48107475;stroke-miterlimit:4;stroke-opacity:1;stroke-dasharray:none"
       id="rect3863-1-1"
       width="12.895826"
       height="12.047547"
       x="419.26636"
       y="780.62415"
       ry="3.5803299"
       inkscape:export-filename="C:\Users\Jonni\Desktop\mail.png"
       inkscape:export-xdpi="87"
       inkscape:export-ydpi="87" />
    <g
       style="font-size:9.24556732px;font-style:normal;font-weight:normal;line-height:125%;letter-spacing:0px;word-spacing:0px;fill:#000000;fill-opacity:1;stroke:none;"
       id="text3049">
      <path
         d="m 425.93285,787.93962 c -0.19563,0.22573 -0.41458,0.40705 -0.65685,0.54399 -0.24228,0.13694 -0.48531,0.20541 -0.72908,0.20541 -0.26786,0 -0.52819,-0.0783 -0.781,-0.23475 -0.25281,-0.1565 -0.45822,-0.39727 -0.61622,-0.72231 -0.15801,-0.32504 -0.23701,-0.68168 -0.23701,-1.06992 0,-0.47853 0.12264,-0.95781 0.36793,-1.43785 0.24528,-0.48003 0.55,-0.84043 0.91417,-1.08121 0.36416,-0.24076 0.71779,-0.36115 1.0609,-0.36115 0.26183,0 0.51163,0.0685 0.74939,0.2054 0.23776,0.13695 0.44241,0.34536 0.61397,0.62525 l 0.15349,-0.69974 0.80808,0 -0.65008,3.02919 c -0.0903,0.42135 -0.13544,0.6546 -0.13543,0.69974 -1e-5,0.0813 0.0308,0.15123 0.0925,0.20992 0.0617,0.0587 0.13618,0.088 0.22347,0.088 0.1595,0 0.36867,-0.0918 0.62751,-0.27538 0.34309,-0.24077 0.6147,-0.56355 0.81485,-0.96834 0.20013,-0.4048 0.3002,-0.82238 0.30021,-1.25276 -10e-6,-0.5026 -0.12867,-0.97211 -0.38598,-1.40851 -0.25733,-0.43639 -0.64106,-0.7855 -1.15118,-1.04734 -0.51014,-0.26184 -1.07369,-0.39275 -1.69066,-0.39276 -0.70426,1e-5 -1.34756,0.16478 -1.92992,0.49433 -0.58237,0.32956 -1.03381,0.80207 -1.35433,1.41753 -0.32053,0.61548 -0.48079,1.27533 -0.48079,1.97958 0,0.73736 0.16026,1.37239 0.48079,1.9051 0.32052,0.5327 0.784,0.92621 1.39044,1.18052 0.60644,0.25431 1.27834,0.38147 2.0157,0.38147 0.78851,0 1.44913,-0.13242 1.98184,-0.39727 0.53269,-0.26485 0.93147,-0.58688 1.19632,-0.96609 l 0.81712,0 c -0.1535,0.31601 -0.41685,0.63804 -0.79003,0.96609 -0.3732,0.32805 -0.81712,0.58763 -1.33176,0.77874 -0.51465,0.19111 -1.13463,0.28667 -1.85995,0.28667 -0.66814,0 -1.28436,-0.0858 -1.84866,-0.25732 -0.56431,-0.17155 -1.04509,-0.42963 -1.44236,-0.77423 -0.39727,-0.3446 -0.69673,-0.74112 -0.89838,-1.18955 -0.2528,-0.56882 -0.37921,-1.18279 -0.37921,-1.84189 0,-0.73435 0.15048,-1.43409 0.45145,-2.09922 0.36717,-0.8156 0.88859,-1.4401 1.56425,-1.87349 0.67566,-0.43338 1.49503,-0.65007 2.45811,-0.65008 0.74638,10e-6 1.41677,0.15275 2.01118,0.45822 0.59439,0.30548 1.06314,0.76068 1.40625,1.36561 0.29192,0.52067 0.43789,1.08648 0.4379,1.69743 -1e-5,0.8728 -0.30699,1.64777 -0.92095,2.32494 -0.54776,0.60794 -1.14667,0.91191 -1.79674,0.91191 -0.20767,0 -0.37546,-0.0316 -0.50336,-0.0948 -0.12792,-0.0632 -0.22197,-0.15349 -0.28215,-0.27087 -0.0391,-0.0752 -0.0677,-0.20465 -0.0858,-0.38824 z m -2.18499,-1.22341 c 0,0.41232 0.0978,0.73285 0.29344,0.96158 0.19562,0.22873 0.41984,0.34309 0.67265,0.34309 0.16854,0 0.34611,-0.0504 0.53271,-0.15123 0.18659,-0.10082 0.36491,-0.25055 0.53496,-0.44919 0.17004,-0.19863 0.30923,-0.45069 0.41758,-0.75617 0.10834,-0.30547 0.16252,-0.6117 0.16252,-0.91868 0,-0.40931 -0.10158,-0.72682 -0.30472,-0.95255 -0.20316,-0.22572 -0.4507,-0.33858 -0.74263,-0.33858 -0.19262,0 -0.37395,0.0489 -0.54399,0.14672 -0.17004,0.0978 -0.33482,0.25507 -0.49433,0.47176 -0.15951,0.21669 -0.28742,0.48003 -0.38372,0.79002 -0.0963,0.31 -0.14447,0.5944 -0.14447,0.85323 z"
         style=""
         id="path2986" />
    </g>
  </g>
</svg>
