<?xml version="1.0" encoding="UTF-8" standalone="no"?>
<!-- Created with Inkscape (http://www.inkscape.org/) -->

<svg
   xmlns:dc="http://purl.org/dc/elements/1.1/"
   xmlns:cc="http://creativecommons.org/ns#"
   xmlns:rdf="http://www.w3.org/1999/02/22-rdf-syntax-ns#"
   xmlns:svg="http://www.w3.org/2000/svg"
   xmlns="http://www.w3.org/2000/svg"
   xmlns:sodipodi="http://sodipodi.sourceforge.net/DTD/sodipodi-0.dtd"
   xmlns:inkscape="http://www.inkscape.org/namespaces/inkscape"
   width="744.09448819"
   height="1052.3622047"
   id="svg2"
   version="1.1"
   inkscape:version="0.48.4 r9939"
   sodipodi:docname="TELEFONI E FAX.svg">
  <defs
     id="defs4" />
  <sodipodi:namedview
     id="base"
     pagecolor="#ffffff"
     bordercolor="#666666"
     borderopacity="1.0"
     inkscape:pageopacity="0.0"
     inkscape:pageshadow="2"
     inkscape:zoom="6.7791474"
     inkscape:cx="77.542567"
     inkscape:cy="966.42477"
     inkscape:document-units="px"
     inkscape:current-layer="layer1"
     showgrid="false"
     inkscape:window-width="1280"
     inkscape:window-height="962"
     inkscape:window-x="-8"
     inkscape:window-y="-8"
     inkscape:window-maximized="1">
    <inkscape:grid
       type="xygrid"
       id="grid3799" />
  </sodipodi:namedview>
  <metadata
     id="metadata7">
    <rdf:RDF>
      <cc:Work
         rdf:about="">
        <dc:format>image/svg+xml</dc:format>
        <dc:type
           rdf:resource="http://purl.org/dc/dcmitype/StillImage" />
        <dc:title></dc:title>
      </cc:Work>
    </rdf:RDF>
  </metadata>
  <g
     inkscape:label="Livello 1"
     inkscape:groupmode="layer"
     id="layer1">
    <rect
       style="fill:#000000;fill-opacity:1;stroke:none"
       id="rect2985"
       width="9.1221457"
       height="3.716429"
       x="78.89756"
       y="62.74416"
       ry="0.56309539"
       inkscape:export-filename="C:\Program Files\EasyPHP-5.3.6.0\www\webContab\my\php\telefoni\img\fax.png"
       inkscape:export-xdpi="87"
       inkscape:export-ydpi="87" />
    <rect
       style="fill:#ffffff;fill-opacity:1;stroke:#000000;stroke-width:0.19540301;stroke-miterlimit:4;stroke-opacity:1;stroke-dasharray:none"
       id="rect3757"
       width="5.560473"
       height="4.5174246"
       x="80.522392"
       y="59.247643"
       ry="0.56467813"
       inkscape:export-filename="C:\Program Files\EasyPHP-5.3.6.0\www\webContab\my\php\telefoni\img\fax.png"
       inkscape:export-xdpi="87"
       inkscape:export-ydpi="87" />
    <rect
       style="fill:#ffffff;fill-opacity:1;stroke:#000000;stroke-width:0.33987096;stroke-miterlimit:4;stroke-opacity:1;stroke-dasharray:none"
       id="rect3757-1"
       width="5.5833058"
       height="1.717751"
       x="80.511932"
       y="65.834373"
       ry="0.21471889"
       inkscape:export-filename="C:\Program Files\EasyPHP-5.3.6.0\www\webContab\my\php\telefoni\img\fax.png"
       inkscape:export-xdpi="87"
       inkscape:export-ydpi="87" />
    <path
       sodipodi:type="arc"
       style="fill:#ffffff;fill-opacity:1;stroke:#ffffff;stroke-width:1.92999995;stroke-miterlimit:4;stroke-opacity:1;stroke-dasharray:none"
       id="path3777"
       sodipodi:cx="256.09982"
       sodipodi:cy="157.60342"
       sodipodi:rx="3.1813645"
       sodipodi:ry="3.1813645"
       d="m 259.28119,157.60342 a 3.1813645,3.1813645 0 1 1 -6.36273,0 3.1813645,3.1813645 0 1 1 6.36273,0 z"
       transform="matrix(0.08621028,0,0,0.08621028,64.827256,50.698057)"
       inkscape:export-filename="C:\Program Files\EasyPHP-5.3.6.0\www\webContab\my\php\telefoni\img\fax.png"
       inkscape:export-xdpi="87"
       inkscape:export-ydpi="87" />
    <path
       sodipodi:type="arc"
       style="fill:#ffffff;fill-opacity:1;stroke:#ffffff;stroke-width:1.92999995;stroke-miterlimit:4;stroke-opacity:1;stroke-dasharray:none"
       id="path3777-7"
       sodipodi:cx="256.09982"
       sodipodi:cy="157.60342"
       sodipodi:rx="3.1813645"
       sodipodi:ry="3.1813645"
       d="m 259.28119,157.60342 a 3.1813645,3.1813645 0 1 1 -6.36273,0 3.1813645,3.1813645 0 1 1 6.36273,0 z"
       transform="matrix(0.08621028,0,0,0.08621028,63.876547,50.698057)"
       inkscape:export-filename="C:\Program Files\EasyPHP-5.3.6.0\www\webContab\my\php\telefoni\img\fax.png"
       inkscape:export-xdpi="87"
       inkscape:export-ydpi="87" />
    <flowRoot
       xml:space="preserve"
       id="flowRoot3803"
       style="fill:black;stroke:none;stroke-opacity:1;stroke-width:1px;stroke-linejoin:miter;stroke-linecap:butt;fill-opacity:1;font-family:Sans;font-style:normal;font-weight:normal;font-size:40px;line-height:125%;letter-spacing:0px;word-spacing:0px"><flowRegion
         id="flowRegion3805"><rect
           id="rect3807"
           width="85.960892"
           height="51.435616"
           x="79.26722"
           y="105.73545" /></flowRegion><flowPara
         id="flowPara3809" /></flowRoot>    <text
       xml:space="preserve"
       style="font-size:2.83196902px;font-style:normal;font-weight:normal;line-height:125%;letter-spacing:0px;word-spacing:0px;fill:#000000;fill-opacity:1;stroke:none;font-family:Sans"
       x="80.934898"
       y="59.697777"
       id="text3811"
       sodipodi:linespacing="125%"
       inkscape:export-filename="C:\Program Files\EasyPHP-5.3.6.0\www\webContab\my\php\telefoni\img\fax.png"
       inkscape:export-xdpi="87"
       inkscape:export-ydpi="87"><tspan
         sodipodi:role="line"
         id="tspan3813"
         x="80.934898"
         y="59.697777">___</tspan></text>
    <text
       xml:space="preserve"
       style="font-size:2.83196902px;font-style:normal;font-weight:normal;line-height:125%;letter-spacing:0px;word-spacing:0px;fill:#000000;fill-opacity:1;stroke:none;font-family:Sans"
       x="80.934158"
       y="60.420223"
       id="text3811-4"
       sodipodi:linespacing="125%"
       inkscape:export-filename="C:\Program Files\EasyPHP-5.3.6.0\www\webContab\my\php\telefoni\img\fax.png"
       inkscape:export-xdpi="87"
       inkscape:export-ydpi="87"><tspan
         sodipodi:role="line"
         id="tspan3813-0"
         x="80.934158"
         y="60.420223">___</tspan></text>
    <text
       xml:space="preserve"
       style="font-size:2.83196902px;font-style:normal;font-weight:normal;line-height:125%;letter-spacing:0px;word-spacing:0px;fill:#000000;fill-opacity:1;stroke:none;font-family:Sans"
       x="80.934158"
       y="61.128216"
       id="text3811-9"
       sodipodi:linespacing="125%"
       inkscape:export-filename="C:\Program Files\EasyPHP-5.3.6.0\www\webContab\my\php\telefoni\img\fax.png"
       inkscape:export-xdpi="87"
       inkscape:export-ydpi="87"><tspan
         sodipodi:role="line"
         id="tspan3813-4"
         x="80.934158"
         y="61.128216">___</tspan></text>
    <text
       xml:space="preserve"
       style="font-size:2.83196902px;font-style:normal;font-weight:normal;line-height:125%;letter-spacing:0px;word-spacing:0px;fill:#000000;fill-opacity:1;stroke:none;font-family:Sans"
       x="80.934158"
       y="61.836208"
       id="text3811-8"
       sodipodi:linespacing="125%"
       inkscape:export-filename="C:\Program Files\EasyPHP-5.3.6.0\www\webContab\my\php\telefoni\img\fax.png"
       inkscape:export-xdpi="87"
       inkscape:export-ydpi="87"><tspan
         sodipodi:role="line"
         id="tspan3813-8"
         x="80.934158"
         y="61.836208">___</tspan></text>
    <text
       xml:space="preserve"
       style="font-size:2.83196902px;font-style:normal;font-weight:normal;line-height:125%;letter-spacing:0px;word-spacing:0px;fill:#000000;fill-opacity:1;stroke:none;font-family:Sans"
       x="80.934158"
       y="62.544201"
       id="text3811-2"
       sodipodi:linespacing="125%"
       inkscape:export-filename="C:\Program Files\EasyPHP-5.3.6.0\www\webContab\my\php\telefoni\img\fax.png"
       inkscape:export-xdpi="87"
       inkscape:export-ydpi="87"><tspan
         sodipodi:role="line"
         id="tspan3813-45"
         x="80.934158"
         y="62.544201">___</tspan></text>
    <rect
       style="fill:none;stroke:#000000;stroke-width:0.48107475;stroke-miterlimit:4;stroke-opacity:1;stroke-dasharray:none"
       id="rect3863-1"
       width="12.895826"
       height="12.047547"
       x="77.563583"
       y="86.332481"
       ry="3.5803299"
       inkscape:export-filename="C:\Program Files\EasyPHP-5.3.6.0\www\webContab\my\php\telefoni\img\tel.png"
       inkscape:export-xdpi="87"
       inkscape:export-ydpi="87" />
    <rect
       style="fill:#000000;fill-opacity:1;stroke:#000000;stroke-width:0.14228408;stroke-miterlimit:4;stroke-opacity:1;stroke-dasharray:none"
       id="rect3890"
       width="4.2345796"
       height="6.8784828"
       x="81.283249"
       y="74.491814"
       ry="0.26659307"
       inkscape:export-filename="C:\Program Files\EasyPHP-5.3.6.0\www\webContab\my\php\telefoni\img\cell.png"
       inkscape:export-xdpi="87"
       inkscape:export-ydpi="87" />
    <rect
       style="fill:#000000;fill-opacity:1;stroke:#000000;stroke-width:0.20547199;stroke-miterlimit:4;stroke-opacity:1;stroke-dasharray:none"
       id="rect3894"
       width="0.57967502"
       height="2.4753029"
       x="84.615303"
       y="73.176514"
       ry="0.1213384"
       inkscape:export-filename="C:\Program Files\EasyPHP-5.3.6.0\www\webContab\my\php\telefoni\img\cell.png"
       inkscape:export-xdpi="87"
       inkscape:export-ydpi="87" />
    <rect
       style="fill:#ffffff;fill-opacity:1;stroke:#000000;stroke-width:0.09838956;stroke-miterlimit:4;stroke-opacity:1;stroke-dasharray:none"
       id="rect3892"
       width="3.1810057"
       height="1.5348018"
       x="81.859917"
       y="75.168259"
       ry="0.19074933"
       inkscape:export-filename="C:\Program Files\EasyPHP-5.3.6.0\www\webContab\my\php\telefoni\img\cell.png"
       inkscape:export-xdpi="87"
       inkscape:export-ydpi="87" />
    <rect
       style="fill:#ffffff;fill-opacity:1;stroke:#000000;stroke-width:0.18512671;stroke-miterlimit:4;stroke-opacity:1;stroke-dasharray:none"
       id="rect3896"
       width="0.81976479"
       height="0.94167966"
       x="81.970909"
       y="77.292686"
       ry="0.27698314"
       inkscape:export-filename="C:\Program Files\EasyPHP-5.3.6.0\www\webContab\my\php\telefoni\img\cell.png"
       inkscape:export-xdpi="87"
       inkscape:export-ydpi="87" />
    <rect
       style="fill:#ffffff;fill-opacity:1;stroke:#000000;stroke-width:0.18512671;stroke-miterlimit:4;stroke-opacity:1;stroke-dasharray:none"
       id="rect3896-15"
       width="0.81976479"
       height="0.94167966"
       x="81.981842"
       y="78.592697"
       ry="0.27698314"
       inkscape:export-filename="C:\Program Files\EasyPHP-5.3.6.0\www\webContab\my\php\telefoni\img\cell.png"
       inkscape:export-xdpi="87"
       inkscape:export-ydpi="87" />
    <rect
       style="fill:#ffffff;fill-opacity:1;stroke:#000000;stroke-width:0.18512671;stroke-miterlimit:4;stroke-opacity:1;stroke-dasharray:none"
       id="rect3896-6"
       width="0.81976479"
       height="0.94167966"
       x="81.981842"
       y="79.953415"
       ry="0.27698314"
       inkscape:export-filename="C:\Program Files\EasyPHP-5.3.6.0\www\webContab\my\php\telefoni\img\cell.png"
       inkscape:export-xdpi="87"
       inkscape:export-ydpi="87" />
    <rect
       style="fill:#000000;fill-opacity:1;stroke:none"
       id="rect3993"
       width="7.8235049"
       height="6.549088"
       x="79.962074"
       y="89.853226"
       ry="1.8435366"
       inkscape:export-filename="C:\Program Files\EasyPHP-5.3.6.0\www\webContab\my\php\telefoni\img\tel.png"
       inkscape:export-xdpi="87"
       inkscape:export-ydpi="87" />
    <path
       style="fill:#000000;fill-opacity:1;stroke:#ffffff;stroke-width:0.69362819;stroke-miterlimit:4;stroke-opacity:1;stroke-dasharray:none"
       d="m 80.664413,91.977552 c 0.816961,0 1.357032,-0.553868 1.357032,-1.225597 -0.01415,-0.349415 0.972832,-0.536072 1.664401,-0.568575 0.717997,0.03045 1.772832,0.109619 1.743266,0.571429 0,0.671722 0.576516,1.214408 1.393478,1.214408 0.816956,0 1.549182,0.179229 1.506712,-1.370113 -0.0023,-1.306664 -1.068209,-2.550587 -4.5531,-2.606664 -3.980559,0.0079 -4.489993,1.208891 -4.517684,2.645831 0.02551,1.458205 0.726835,1.344025 1.405895,1.339281 z"
       id="path3962"
       inkscape:connector-curvature="0"
       sodipodi:nodetypes="ccccscccc"
       inkscape:export-filename="C:\Program Files\EasyPHP-5.3.6.0\www\webContab\my\php\telefoni\img\tel.png"
       inkscape:export-xdpi="87"
       inkscape:export-ydpi="87" />
    <path
       sodipodi:type="arc"
       style="fill:#ffffff;fill-opacity:1;stroke:none"
       id="path4014"
       sodipodi:cx="429.02298"
       sodipodi:cy="156.32742"
       sodipodi:rx="4.0945992"
       sodipodi:ry="2.9572103"
       d="m 433.11758,156.32742 a 4.0945992,2.9572103 0 1 1 -8.1892,0 4.0945992,2.9572103 0 1 1 8.1892,0 z"
       transform="matrix(0.44957379,0,0,0.45147397,-109.03148,23.073426)"
       inkscape:export-xdpi="87"
       inkscape:export-ydpi="87"
       inkscape:export-filename="C:\Program Files\EasyPHP-5.3.6.0\www\webContab\my\php\telefoni\img\tel.png" />
    <rect
       style="fill:#ffffff;fill-opacity:1;stroke:#000000;stroke-width:0.18512671;stroke-miterlimit:4;stroke-opacity:1;stroke-dasharray:none"
       id="rect3896-3"
       width="0.81976479"
       height="0.94167966"
       x="83.02243"
       y="77.262222"
       ry="0.27698314"
       inkscape:export-filename="C:\Program Files\EasyPHP-5.3.6.0\www\webContab\my\php\telefoni\img\cell.png"
       inkscape:export-xdpi="87"
       inkscape:export-ydpi="87" />
    <rect
       style="fill:#ffffff;fill-opacity:1;stroke:#000000;stroke-width:0.18512671;stroke-miterlimit:4;stroke-opacity:1;stroke-dasharray:none"
       id="rect3896-15-2"
       width="0.81976479"
       height="0.94167966"
       x="83.033348"
       y="78.562225"
       ry="0.27698314"
       inkscape:export-filename="C:\Program Files\EasyPHP-5.3.6.0\www\webContab\my\php\telefoni\img\cell.png"
       inkscape:export-xdpi="87"
       inkscape:export-ydpi="87" />
    <rect
       style="fill:#ffffff;fill-opacity:1;stroke:#000000;stroke-width:0.18512671;stroke-miterlimit:4;stroke-opacity:1;stroke-dasharray:none"
       id="rect3896-6-2"
       width="0.81976479"
       height="0.94167966"
       x="83.033348"
       y="79.922943"
       ry="0.27698314"
       inkscape:export-filename="C:\Program Files\EasyPHP-5.3.6.0\www\webContab\my\php\telefoni\img\cell.png"
       inkscape:export-xdpi="87"
       inkscape:export-ydpi="87" />
    <rect
       style="fill:#ffffff;fill-opacity:1;stroke:#000000;stroke-width:0.18512671;stroke-miterlimit:4;stroke-opacity:1;stroke-dasharray:none"
       id="rect3896-1"
       width="0.81976479"
       height="0.94167966"
       x="84.011993"
       y="77.262222"
       ry="0.27698314"
       inkscape:export-filename="C:\Program Files\EasyPHP-5.3.6.0\www\webContab\my\php\telefoni\img\cell.png"
       inkscape:export-xdpi="87"
       inkscape:export-ydpi="87" />
    <rect
       style="fill:#ffffff;fill-opacity:1;stroke:#000000;stroke-width:0.18512671;stroke-miterlimit:4;stroke-opacity:1;stroke-dasharray:none"
       id="rect3896-15-6"
       width="0.81976479"
       height="0.94167966"
       x="84.022919"
       y="78.562225"
       ry="0.27698314"
       inkscape:export-filename="C:\Program Files\EasyPHP-5.3.6.0\www\webContab\my\php\telefoni\img\cell.png"
       inkscape:export-xdpi="87"
       inkscape:export-ydpi="87" />
    <rect
       style="fill:#ffffff;fill-opacity:1;stroke:#000000;stroke-width:0.18512671;stroke-miterlimit:4;stroke-opacity:1;stroke-dasharray:none"
       id="rect3896-6-8"
       width="0.81976479"
       height="0.94167966"
       x="84.022919"
       y="79.922943"
       ry="0.27698314"
       inkscape:export-filename="C:\Program Files\EasyPHP-5.3.6.0\www\webContab\my\php\telefoni\img\cell.png"
       inkscape:export-xdpi="87"
       inkscape:export-ydpi="87" />
    <rect
       style="fill:none;stroke:#000000;stroke-width:0.48107475;stroke-miterlimit:4;stroke-opacity:1;stroke-dasharray:none"
       id="rect3863-1-5"
       width="12.895826"
       height="12.047547"
       x="77.135452"
       y="71.546761"
       ry="3.5803299"
       inkscape:export-xdpi="87"
       inkscape:export-ydpi="87"
       inkscape:export-filename="C:\Program Files\EasyPHP-5.3.6.0\www\webContab\my\php\telefoni\img\cell.png" />
    <rect
       style="fill:none;stroke:#000000;stroke-width:0.48107475;stroke-miterlimit:4;stroke-opacity:1;stroke-dasharray:none"
       id="rect3863-1-7"
       width="12.895826"
       height="12.047547"
       x="76.992638"
       y="57.59053"
       ry="3.5803299"
       inkscape:export-xdpi="87"
       inkscape:export-ydpi="87"
       inkscape:export-filename="C:\Program Files\EasyPHP-5.3.6.0\www\webContab\my\php\telefoni\img\fax.png" />
    <rect
       style="fill:none;stroke:#000000;stroke-width:0.48107475;stroke-miterlimit:4;stroke-opacity:1;stroke-dasharray:none"
       id="rect3863-1-1"
       width="12.895826"
       height="12.047547"
       x="77.344574"
       y="100.55643"
       ry="3.5803299"
       inkscape:export-filename="C:\Users\Jonni\Desktop\mail.png"
       inkscape:export-xdpi="87"
       inkscape:export-ydpi="87" />
    <text
       xml:space="preserve"
       style="font-size:9.24556732px;font-style:normal;font-weight:normal;line-height:125%;letter-spacing:0px;word-spacing:0px;fill:#000000;fill-opacity:1;stroke:none;font-family:Sans"
       x="78.769798"
       y="108.60778"
       id="text3049"
       sodipodi:linespacing="125%"
       inkscape:export-filename="C:\Users\Jonni\Desktop\mail.png"
       inkscape:export-xdpi="87"
       inkscape:export-ydpi="87"><tspan
         sodipodi:role="line"
         id="tspan3051"
         x="78.769798"
         y="108.60778">@</tspan></text>
    <rect
       style="fill:none;stroke:#000000;stroke-width:0.48107475;stroke-miterlimit:4;stroke-opacity:1;stroke-dasharray:none"
       id="rect3863-1-1-7"
       width="12.895826"
       height="12.047547"
       x="77.151443"
       y="115.09434"
       ry="3.5803299"
       inkscape:export-filename="C:\Users\Jonni\Desktop\web.png"
       inkscape:export-xdpi="87"
       inkscape:export-ydpi="87" />
    <path
       sodipodi:type="arc"
       style="fill:#000000;fill-opacity:1;stroke:#ffffff;stroke-width:1.5;stroke-miterlimit:4;stroke-opacity:1;stroke-dasharray:none"
       id="path3071"
       sodipodi:cx="193.82805"
       sodipodi:cy="101.17123"
       sodipodi:rx="9.757658"
       sodipodi:ry="9.6371927"
       d="m 203.58571,101.17123 a 9.757658,9.6371927 0 1 1 -19.51532,0 9.757658,9.6371927 0 1 1 19.51532,0 z"
       transform="matrix(0.46227838,0,0,0.46227838,-6.2682399,74.292499)"
       inkscape:export-filename="C:\Users\Jonni\Desktop\web.png"
       inkscape:export-xdpi="87"
       inkscape:export-ydpi="87" />
    <path
       style="fill:#ffffff;stroke:#000000;stroke-width:0.46227837px;stroke-linecap:butt;stroke-linejoin:miter;stroke-opacity:1"
       d="m 82.944457,119.5025 c 0,0.4455 0,0.89101 0,1.33652 0,0.027 -0.0037,0.33054 0,0.33413 0.02626,0.0263 0.09478,-0.0332 0.111377,0 0.03319,0.0664 -0.03319,0.15634 0,0.22275 0.0166,0.0332 0.08513,-0.0263 0.111377,0 0.02306,0.0231 -0.01188,0.43956 0,0.44551 0.06642,0.0332 0.148502,0 0.222754,0 0.03712,0 0.08513,-0.0263 0.111376,0 0.02626,0.0263 -0.02626,0.0851 0,0.11138 0.05251,0.0525 0.189548,-0.0664 0.222753,0 0.03319,0.0664 0,0.14849 0,0.22275 0,0.0371 -0.02626,0.0851 0,0.11138 0.03717,0.0372 0.185596,-0.0372 0.222754,0 0.03712,0.0371 -0.03712,0.18564 0,0.22275 0.0587,0.0587 0.164054,0.0527 0.222754,0.11138 0.02681,0.0268 -0.02681,0.4187 0,0.4455 0.02626,0.0263 0.08512,-0.0263 0.111376,0 0.03712,0.0371 -0.03712,0.18563 0,0.22276 0.05251,0.0525 0.170253,-0.0525 0.222754,0 0.02626,0.0263 -0.02626,0.0851 0,0.11137 0.03005,0.03 0.66826,-0.0253 0.66826,0 0,0.0371 -0.148502,0 -0.111377,0 0.07425,0 0.148503,0 0.222754,0 0.03712,0 0.08512,0.0263 0.111377,0 0.02626,-0.0263 -0.02626,-0.0851 0,-0.11137 0.02626,-0.0263 0.08512,0.0263 0.111376,0 0.02626,-0.0263 -0.03319,-0.0948 0,-0.11138 0.110804,-0.0554 0.312098,0.044 0.334131,0 0.03319,-0.0664 -0.02348,-0.15231 0,-0.22276 0.115879,-0.34763 0.07425,0.0371 0.222753,-0.11137 0.05569,-0.0557 -0.05569,-0.27844 0,-0.33413 0.02626,-0.0263 0.08512,0.0263 0.111377,0 0.02626,-0.0263 -0.02626,-0.0851 0,-0.11138 0.02626,-0.0263 0.09477,0.0332 0.111377,0 0.0554,-0.11079 -0.04405,-0.3121 0,-0.33413 0.06641,-0.0332 0.156342,0.0332 0.222753,0 0.03319,-0.0166 0,-0.0743 0,-0.11137 0,-0.0371 -0.03712,-0.11138 0,-0.11138 0.03712,0 0,0.1485 0,0.11138 0,-0.1485 0,-0.29701 0,-0.44551 0,-0.0525 -0.005,-0.55183 0,-0.55688 0.02626,-0.0263 0.09477,0.0332 0.111377,0 0.03319,-0.0664 0,-0.14851 0,-0.22276 0,-0.0371 -0.02626,-0.0851 0,-0.11138 0.02626,-0.0263 0.08512,0.0263 0.111376,0 0.05569,-0.0557 -0.05569,-0.27844 0,-0.33412 0.02626,-0.0263 0.08512,0.0263 0.111377,0 0.03176,-0.0318 -0.02556,-0.44551 0,-0.44551 0.03712,0 -0.03712,0.11137 0,0.11137 0.0525,0 0.06441,-0.0879 0.111377,-0.11137 0.0891,-0.0445 0.245026,0.0445 0.33413,0 0.297005,-0.1485 -0.33413,-0.11138 0.111377,-0.11138"
       id="path3073"
       inkscape:connector-curvature="0"
       inkscape:export-filename="C:\Users\Jonni\Desktop\web.png"
       inkscape:export-xdpi="87"
       inkscape:export-ydpi="87" />
    <path
       style="fill:#ffffff;fill-opacity:1;stroke:none"
       d="m 81.009508,122.89575 c 0.152718,0 0.305437,0 0.458155,0 0.03818,0 0.08039,0.0278 0.114534,0 0.02547,-0.0207 0.01452,-0.0984 0.03818,-0.12405 0.011,-0.0119 0.198279,0 0.229077,0 0.01271,0 0.02917,0.0146 0.03818,0 0.009,-0.0146 -0.01137,-0.0528 0,-0.062 0.02219,-0.018 0.206574,0.0183 0.229078,0 0.01609,-0.0131 0.02112,-0.0528 0.03818,-0.062 0.03624,-0.0196 0.07636,0 0.11454,0 0.08908,0 0.178171,0 0.267256,0 0.01271,0 0.02547,0 0.03818,0 0.01271,0 0.02917,-0.0146 0.03818,0 0.009,0.0146 -0.009,0.0474 0,0.062 0.009,0.0146 0.02917,-0.0146 0.03818,0 0.009,0.0146 -0.009,0.0474 0,0.062 0.0117,0.0191 0.179101,-0.0192 0.190898,0 0.009,0.0146 -0.009,0.0474 0,0.062 0.009,0.0146 0.0325,-0.0185 0.03818,0 0.01137,0.037 0,0.0827 0,0.12404 0,0.0207 -0.009,0.0474 0,0.062 0.01373,0.0223 0.128018,-0.02 0.152718,0 0.01586,0.0129 -0.01331,0.16441 0,0.18607 0.01276,0.0207 0.06363,-0.0207 0.07636,0 0.009,0.0146 -0.009,0.0474 0,0.062 0.009,0.0146 0.0325,-0.0185 0.03818,0 0.01137,0.037 0,0.0827 0,0.12404 0,0.0207 -0.009,0.0474 0,0.062 0.009,0.0146 0.02917,-0.0146 0.03818,0 0.01798,0.0293 -0.01799,0.0948 0,0.12406 0.009,0.0146 0.02917,-0.0146 0.03818,0 0.01798,0.0292 -0.02279,0.10555 0,0.12404 0.02279,0.0185 0.05836,-0.0292 0.07636,0 0.0091,0.0148 0,0.20801 0,0.24809 0,0.062 0,0.12405 0,0.18607 0,0.0414 0.02547,0.12405 0,0.12405 -0.02547,0 0.02547,-0.12405 0,-0.12405 -0.03601,0 -0.04641,0.0916 -0.07636,0.12405 -0.01059,0.0115 -0.02917,-0.0146 -0.03818,0 -0.009,0.0146 0,0.0827 0,0.062 0,-0.20675 0.03818,-0.18607 -0.03818,-0.18607 -0.01271,0 -0.02612,-0.006 -0.03818,0 -0.159523,0.0864 -0.02233,0.0105 -0.07636,0.18607 -0.0057,0.0185 -0.02547,0 -0.03818,0 -0.03199,0 -0.174667,-0.0132 -0.190897,0 -0.01137,0.009 0.009,0.0474 0,0.062 -0.0092,0.0149 -0.143528,-0.0149 -0.152718,0 -0.009,0.0146 0.009,0.0474 0,0.062 -0.009,0.0146 -0.0325,0.0185 -0.03818,0 -0.01137,-0.037 0.02547,-0.12405 0,-0.12405 -0.03601,0 -0.04641,0.0916 -0.07636,0.12405 -0.01059,0.0115 -0.02917,-0.0146 -0.03818,0 -0.009,0.0146 0.009,0.0474 0,0.062 -0.01331,0.0217 -0.106611,-0.0258 -0.114539,0 -0.01137,0.037 0.01799,0.0948 0,0.12405 -0.01798,0.0293 -0.05518,-0.0229 -0.07636,0 -0.139502,0.15109 0.04096,0.0908 -0.07636,0.18607 -0.02275,0.0185 -0.05836,-0.0293 -0.07636,0 -0.009,0.0146 0.01137,0.0528 0,0.062 -0.038,0.0309 -0.106985,-0.0246 -0.114539,0 -0.01137,0.037 0.01137,0.0871 0,0.12405 -0.0057,0.0185 -0.0325,0.0185 -0.03818,0 -0.03643,-0.11833 0.04378,-0.11952 -0.03818,-0.18607 -0.01095,-0.009 -0.170498,0 -0.190898,0 -0.01271,0 -0.02917,0.0146 -0.03818,0 -0.009,-0.0146 0.01137,-0.0528 0,-0.062 -0.02275,-0.0185 -0.05091,0 -0.07636,0 -0.01271,0 -0.02917,0.0146 -0.03818,0 -0.01909,-0.031 0.01909,-0.15507 0,-0.18608 -0.01198,-0.0194 -0.178981,0.0194 -0.190894,0 -0.009,-0.0146 0.009,-0.0474 0,-0.062 -0.009,-0.0146 -0.02681,0.009 -0.03818,0 -0.01609,-0.0131 -0.02112,-0.0528 -0.03818,-0.062 -0.02413,-0.0131 -0.0536,0.0185 -0.07636,0 -0.01137,-0.009 0.009,-0.0474 0,-0.062 -0.009,-0.0146 -0.02917,0.0146 -0.03818,0 -0.01798,-0.0293 0.01798,-0.0948 0,-0.12405 -0.01798,-0.0293 -0.06498,0.037 -0.07636,0 0,-0.35147 0.02547,-0.0207 -0.03818,-0.12405 -0.01909,-0.031 0.01909,-0.15506 0,-0.18607 -0.009,-0.0146 -0.02547,0 -0.03818,0 -0.02547,0 -0.0536,0.0185 -0.07636,0 -0.01137,-0.009 0,-0.0414 0,-0.062 0,-0.062 0.01207,-0.12723 0,-0.18607 -0.0042,-0.0196 -0.02547,0 -0.03818,0 -0.101812,0 0.01271,0.0207 -0.03818,-0.062 -0.009,-0.0146 -0.02917,0.0146 -0.03818,0 -0.0092,-0.0149 0.0092,-0.23318 0,-0.2481 -0.009,-0.0146 -0.0325,0.0185 -0.03818,0 -0.01137,-0.037 -0.02547,-0.12404 0,-0.12404 0.02547,0 0,0.16539 0,0.12404 0,-0.062 0,-0.12404 0,-0.18607 0,-0.26877 0.02547,0.33079 -0.03818,0.12405 -0.01137,-0.037 0,-0.0827 0,-0.12405 0,-0.22627 -0.01225,-0.11212 0.190897,-0.31011 z"
       id="path3845"
       inkscape:connector-curvature="0"
       inkscape:export-filename="C:\Users\Jonni\Desktop\web.png"
       inkscape:export-xdpi="87"
       inkscape:export-ydpi="87" />
    <path
       style="fill:#ffffff;fill-opacity:1;stroke:none"
       d="m 80.787064,117.9912 c 0.152719,0 0.305437,0 0.458155,0 0.03818,0 0.08039,0.0278 0.114534,0 0.02547,-0.0207 0.01452,-0.0984 0.03818,-0.12404 0.011,-0.0119 0.198281,0 0.229077,0 0.01271,0 0.02917,0.0146 0.03818,0 0.009,-0.0146 -0.01137,-0.0528 0,-0.062 0.02219,-0.018 0.206573,0.0183 0.229077,0 0.01609,-0.0131 0.02112,-0.0528 0.03818,-0.062 0.03624,-0.0196 0.07636,0 0.114538,0 0.08909,0 0.178172,0 0.267258,0 0.01271,0 0.02547,0 0.03818,0 0.01271,0 0.02917,-0.0146 0.03818,0 0.009,0.0146 -0.009,0.0474 0,0.062 0.009,0.0146 0.02917,-0.0146 0.03818,0 0.009,0.0146 -0.009,0.0474 0,0.062 0.0117,0.0191 0.1791,-0.0192 0.190898,0 0.009,0.0146 -0.009,0.0474 0,0.062 0.009,0.0146 0.0325,-0.0185 0.03818,0 0.01137,0.037 0,0.0827 0,0.12404 0,0.0207 -0.009,0.0474 0,0.062 0.01373,0.0223 0.12802,-0.02 0.152719,0 0.01586,0.0129 -0.01331,0.16442 0,0.18608 0.01276,0.0207 0.06363,-0.0207 0.07636,0 0.009,0.0146 -0.009,0.0474 0,0.062 0.009,0.0146 0.0325,-0.0185 0.03818,0 0.01137,0.037 0,0.0827 0,0.12404 0,0.0207 -0.009,0.0474 0,0.062 0.009,0.0146 0.02917,-0.0146 0.03818,0 0.01799,0.0292 -0.01798,0.0948 0,0.12406 0.009,0.0146 0.02917,-0.0146 0.03818,0 0.01799,0.0292 -0.02279,0.10554 0,0.12404 0.02279,0.0185 0.05837,-0.0293 0.07636,0 0.0091,0.0148 0,0.20801 0,0.24809 0,0.062 0,0.12405 0,0.18607 0,0.0413 0.02547,0.12405 0,0.12405 -0.02547,0 0.02547,-0.12405 0,-0.12405 -0.03601,0 -0.04641,0.0916 -0.07636,0.12405 -0.01059,0.0115 -0.02917,-0.0146 -0.03818,0 -0.009,0.0146 0,0.0827 0,0.062 0,-0.20674 0.03818,-0.18607 -0.03818,-0.18607 -0.01271,0 -0.02612,-0.006 -0.03818,0 -0.159523,0.0864 -0.02233,0.0105 -0.07636,0.18607 -0.0057,0.0185 -0.02547,0 -0.03818,0 -0.03199,0 -0.174667,-0.0132 -0.190897,0 -0.01137,0.009 0.009,0.0474 0,0.062 -0.0092,0.0149 -0.143528,-0.0149 -0.152719,0 -0.009,0.0146 0.009,0.0474 0,0.062 -0.009,0.0146 -0.0325,0.0185 -0.03818,0 -0.01137,-0.037 0.02547,-0.12406 0,-0.12406 -0.03601,0 -0.04641,0.0916 -0.07636,0.12406 -0.01059,0.0115 -0.02917,-0.0146 -0.03818,0 -0.009,0.0146 0.009,0.0474 0,0.062 -0.01331,0.0216 -0.106611,-0.0258 -0.114539,0 -0.01137,0.037 0.01798,0.0948 0,0.12405 -0.01799,0.0293 -0.05518,-0.0229 -0.07636,0 -0.139501,0.15109 0.04096,0.0908 -0.07636,0.18607 -0.02275,0.0185 -0.05836,-0.0293 -0.07636,0 -0.009,0.0146 0.01137,0.0528 0,0.062 -0.038,0.0308 -0.106986,-0.0246 -0.11454,0 -0.01137,0.037 0.01137,0.0871 0,0.12405 -0.0057,0.0185 -0.0325,0.0185 -0.03818,0 -0.03643,-0.11834 0.04378,-0.11952 -0.03818,-0.18607 -0.01095,-0.009 -0.170497,0 -0.190898,0 -0.01271,0 -0.02917,0.0146 -0.03818,0 -0.009,-0.0146 0.01137,-0.0528 0,-0.062 -0.02275,-0.0185 -0.05091,0 -0.07636,0 -0.01271,0 -0.02917,0.0146 -0.03818,0 -0.01909,-0.031 0.01909,-0.15506 0,-0.18607 -0.01197,-0.0194 -0.178981,0.0194 -0.190893,0 -0.009,-0.0146 0.009,-0.0474 0,-0.062 -0.009,-0.0146 -0.02681,0.009 -0.03818,0 -0.01609,-0.0131 -0.02112,-0.0528 -0.03818,-0.062 -0.02413,-0.0131 -0.0536,0.0185 -0.07636,0 -0.01137,-0.009 0.009,-0.0474 0,-0.062 -0.009,-0.0146 -0.02917,0.0146 -0.03818,0 -0.01798,-0.0292 0.01798,-0.0948 0,-0.12404 -0.01798,-0.0293 -0.06498,0.037 -0.07636,0 0,-0.35147 0.02547,-0.0207 -0.03818,-0.12405 -0.01909,-0.031 0.01909,-0.15505 0,-0.18606 -0.009,-0.0146 -0.02547,0 -0.03818,0 -0.02547,0 -0.0536,0.0185 -0.07636,0 -0.01137,-0.009 0,-0.0414 0,-0.062 0,-0.062 0.01207,-0.12723 0,-0.18607 -0.0042,-0.0196 -0.02547,0 -0.03818,0 -0.101812,0 0.01271,0.0207 -0.03818,-0.062 -0.009,-0.0146 -0.02917,0.0146 -0.03818,0 -0.0092,-0.0149 0.0092,-0.23317 0,-0.24809 -0.009,-0.0146 -0.0325,0.0185 -0.03818,0 -0.01137,-0.037 -0.02547,-0.12405 0,-0.12405 0.02547,0 0,0.1654 0,0.12405 0,-0.062 0,-0.12405 0,-0.18607 0,-0.26877 0.02547,0.33079 -0.03818,0.12404 -0.01137,-0.037 0,-0.0827 0,-0.12404 0,-0.22627 -0.01225,-0.11212 0.190899,-0.31012 z"
       id="path3845-4"
       inkscape:connector-curvature="0"
       inkscape:export-filename="C:\Users\Jonni\Desktop\web.png"
       inkscape:export-xdpi="87"
       inkscape:export-ydpi="87" />
    <rect
       style="fill:none;stroke:#000000;stroke-width:0.48107475;stroke-miterlimit:4;stroke-opacity:1;stroke-dasharray:none"
       id="rect3863-1-7-6"
       width="12.895826"
       height="12.047547"
       x="76.624611"
       y="129.50259"
       ry="3.5803299"
       inkscape:export-xdpi="87"
       inkscape:export-ydpi="87"
       inkscape:export-filename="C:\Program Files\EasyPHP-5.3.6.0\www\webContab\my\php\telefoni\img\null.png" />
  </g>
</svg>
