<?xml version="1.0" encoding="UTF-8" standalone="no"?>
<!-- Created with Inkscape (http://www.inkscape.org/) -->

<svg
   xmlns:dc="http://purl.org/dc/elements/1.1/"
   xmlns:cc="http://creativecommons.org/ns#"
   xmlns:rdf="http://www.w3.org/1999/02/22-rdf-syntax-ns#"
   xmlns:svg="http://www.w3.org/2000/svg"
   xmlns="http://www.w3.org/2000/svg"
   xmlns:sodipodi="http://sodipodi.sourceforge.net/DTD/sodipodi-0.dtd"
   xmlns:inkscape="http://www.inkscape.org/namespaces/inkscape"
   width="13.375"
   height="12.53125"
   id="svg4162"
   version="1.1"
   inkscape:version="0.48.4 r9939"
   sodipodi:docname="web.svg">
  <defs
     id="defs4164" />
  <sodipodi:namedview
     id="base"
     pagecolor="#ffffff"
     bordercolor="#666666"
     borderopacity="1.0"
     inkscape:pageopacity="0.0"
     inkscape:pageshadow="2"
     inkscape:zoom="0.35"
     inkscape:cx="6.6875"
     inkscape:cy="6.2628174"
     inkscape:document-units="px"
     inkscape:current-layer="layer1"
     showgrid="false"
     inkscape:window-width="518"
     inkscape:window-height="453"
     inkscape:window-x="100"
     inkscape:window-y="100"
     inkscape:window-maximized="0"
     fit-margin-top="0"
     fit-margin-left="0"
     fit-margin-right="0"
     fit-margin-bottom="0" />
  <metadata
     id="metadata4167">
    <rdf:RDF>
      <cc:Work
         rdf:about="">
        <dc:format>image/svg+xml</dc:format>
        <dc:type
           rdf:resource="http://purl.org/dc/dcmitype/StillImage" />
        <dc:title />
      </cc:Work>
    </rdf:RDF>
  </metadata>
  <g
     inkscape:label="Livello 1"
     inkscape:groupmode="layer"
     id="layer1"
     transform="translate(-368.3125,-526.09375)">
    <rect
       style="fill:none;stroke:#000000;stroke-width:0.48107475;stroke-miterlimit:4;stroke-opacity:1;stroke-dasharray:none"
       id="rect3863-1-1-7"
       width="12.895826"
       height="12.047547"
       x="368.55209"
       y="526.33838"
       ry="3.5803299"
       inkscape:export-filename="C:\Users\Jonni\Desktop\web.png"
       inkscape:export-xdpi="87"
       inkscape:export-ydpi="87" />
    <path
       sodipodi:type="arc"
       style="fill:#000000;fill-opacity:1;stroke:#ffffff;stroke-width:1.5;stroke-miterlimit:4;stroke-opacity:1;stroke-dasharray:none"
       id="path3071"
       sodipodi:cx="193.82805"
       sodipodi:cy="101.17123"
       sodipodi:rx="9.757658"
       sodipodi:ry="9.6371927"
       d="m 203.58571,101.17123 c 0,5.32247 -4.36866,9.63719 -9.75766,9.63719 -5.38901,0 -9.75766,-4.31472 -9.75766,-9.63719 0,-5.322478 4.36865,-9.637196 9.75766,-9.637196 5.389,0 9.75766,4.314718 9.75766,9.637196 z"
       transform="matrix(0.46227838,0,0,0.46227838,285.1324,485.53657)"
       inkscape:export-filename="C:\Users\Jonni\Desktop\web.png"
       inkscape:export-xdpi="87"
       inkscape:export-ydpi="87" />
    <path
       style="fill:#ffffff;stroke:#000000;stroke-width:0.46227837px;stroke-linecap:butt;stroke-linejoin:miter;stroke-opacity:1"
       d="m 374.3451,530.74657 c 0,0.4455 0,0.89101 0,1.33652 0,0.027 -0.004,0.33054 0,0.33413 0.0263,0.0263 0.0948,-0.0332 0.11138,0 0.0332,0.0664 -0.0332,0.15634 0,0.22275 0.0166,0.0332 0.0851,-0.0263 0.11137,0 0.0231,0.0231 -0.0119,0.43956 0,0.44551 0.0664,0.0332 0.14851,0 0.22276,0 0.0371,0 0.0851,-0.0263 0.11137,0 0.0263,0.0263 -0.0263,0.0851 0,0.11138 0.0525,0.0525 0.18955,-0.0664 0.22276,0 0.0332,0.0664 0,0.14849 0,0.22275 0,0.0371 -0.0263,0.0851 0,0.11138 0.0372,0.0372 0.18559,-0.0372 0.22275,0 0.0371,0.0371 -0.0371,0.18564 0,0.22275 0.0587,0.0587 0.16406,0.0527 0.22276,0.11138 0.0268,0.0268 -0.0268,0.4187 0,0.4455 0.0263,0.0263 0.0851,-0.0263 0.11137,0 0.0371,0.0371 -0.0371,0.18563 0,0.22276 0.0525,0.0525 0.17025,-0.0525 0.22276,0 0.0263,0.0263 -0.0263,0.0851 0,0.11137 0.0301,0.03 0.66826,-0.0253 0.66826,0 0,0.0371 -0.14851,0 -0.11138,0 0.0743,0 0.1485,0 0.22275,0 0.0371,0 0.0851,0.0263 0.11138,0 0.0263,-0.0263 -0.0263,-0.0851 0,-0.11137 0.0263,-0.0263 0.0851,0.0263 0.11138,0 0.0263,-0.0263 -0.0332,-0.0948 0,-0.11138 0.1108,-0.0554 0.31209,0.044 0.33413,0 0.0332,-0.0664 -0.0235,-0.15231 0,-0.22276 0.11588,-0.34763 0.0743,0.0371 0.22275,-0.11137 0.0557,-0.0557 -0.0557,-0.27844 0,-0.33413 0.0263,-0.0263 0.0851,0.0263 0.11138,0 0.0263,-0.0263 -0.0263,-0.0851 0,-0.11138 0.0263,-0.0263 0.0948,0.0332 0.11137,0 0.0554,-0.11079 -0.044,-0.3121 0,-0.33413 0.0664,-0.0332 0.15635,0.0332 0.22276,0 0.0332,-0.0166 0,-0.0743 0,-0.11137 0,-0.0371 -0.0371,-0.11138 0,-0.11138 0.0371,0 0,0.1485 0,0.11138 0,-0.1485 0,-0.29701 0,-0.44551 0,-0.0525 -0.005,-0.55183 0,-0.55688 0.0263,-0.0263 0.0948,0.0332 0.11137,0 0.0332,-0.0664 0,-0.14851 0,-0.22276 0,-0.0371 -0.0263,-0.0851 0,-0.11138 0.0263,-0.0263 0.0851,0.0263 0.11138,0 0.0557,-0.0557 -0.0557,-0.27844 0,-0.33412 0.0263,-0.0263 0.0851,0.0263 0.11138,0 0.0318,-0.0318 -0.0256,-0.44551 0,-0.44551 0.0371,0 -0.0371,0.11137 0,0.11137 0.0525,0 0.0644,-0.0879 0.11137,-0.11137 0.0891,-0.0445 0.24503,0.0445 0.33413,0 0.29701,-0.1485 -0.33413,-0.11138 0.11138,-0.11138"
       id="path3073"
       inkscape:connector-curvature="0"
       inkscape:export-filename="C:\Users\Jonni\Desktop\web.png"
       inkscape:export-xdpi="87"
       inkscape:export-ydpi="87" />
    <path
       style="fill:#ffffff;fill-opacity:1;stroke:none"
       d="m 372.41015,534.13982 c 0.15272,0 0.30544,0 0.45816,0 0.0382,0 0.0804,0.0278 0.11453,0 0.0255,-0.0207 0.0145,-0.0984 0.0382,-0.12405 0.011,-0.0119 0.19828,0 0.22908,0 0.0127,0 0.0292,0.0146 0.0382,0 0.009,-0.0146 -0.0114,-0.0528 0,-0.062 0.0222,-0.018 0.20657,0.0183 0.22908,0 0.0161,-0.0131 0.0211,-0.0528 0.0382,-0.062 0.0362,-0.0196 0.0764,0 0.11454,0 0.0891,0 0.17817,0 0.26725,0 0.0127,0 0.0255,0 0.0382,0 0.0127,0 0.0292,-0.0146 0.0382,0 0.009,0.0146 -0.009,0.0474 0,0.062 0.009,0.0146 0.0292,-0.0146 0.0382,0 0.009,0.0146 -0.009,0.0474 0,0.062 0.0117,0.0191 0.1791,-0.0192 0.1909,0 0.009,0.0146 -0.009,0.0474 0,0.062 0.009,0.0146 0.0325,-0.0185 0.0382,0 0.0114,0.037 0,0.0827 0,0.12404 0,0.0207 -0.009,0.0474 0,0.062 0.0137,0.0223 0.12802,-0.02 0.15272,0 0.0159,0.0129 -0.0133,0.16441 0,0.18607 0.0128,0.0207 0.0636,-0.0207 0.0764,0 0.009,0.0146 -0.009,0.0474 0,0.062 0.009,0.0146 0.0325,-0.0185 0.0382,0 0.0114,0.037 0,0.0827 0,0.12404 0,0.0207 -0.009,0.0474 0,0.062 0.009,0.0146 0.0292,-0.0146 0.0382,0 0.018,0.0293 -0.018,0.0948 0,0.12406 0.009,0.0146 0.0292,-0.0146 0.0382,0 0.018,0.0292 -0.0228,0.10555 0,0.12404 0.0228,0.0185 0.0584,-0.0292 0.0764,0 0.009,0.0148 0,0.20801 0,0.24809 0,0.062 0,0.12405 0,0.18607 0,0.0414 0.0255,0.12405 0,0.12405 -0.0255,0 0.0255,-0.12405 0,-0.12405 -0.036,0 -0.0464,0.0916 -0.0764,0.12405 -0.0106,0.0115 -0.0292,-0.0146 -0.0382,0 -0.009,0.0146 0,0.0827 0,0.062 0,-0.20675 0.0382,-0.18607 -0.0382,-0.18607 -0.0127,0 -0.0261,-0.006 -0.0382,0 -0.15953,0.0864 -0.0223,0.0105 -0.0764,0.18607 -0.006,0.0185 -0.0255,0 -0.0382,0 -0.032,0 -0.17467,-0.0132 -0.1909,0 -0.0114,0.009 0.009,0.0474 0,0.062 -0.009,0.0149 -0.14353,-0.0149 -0.15272,0 -0.009,0.0146 0.009,0.0474 0,0.062 -0.009,0.0146 -0.0325,0.0185 -0.0382,0 -0.0114,-0.037 0.0255,-0.12405 0,-0.12405 -0.036,0 -0.0464,0.0916 -0.0764,0.12405 -0.0106,0.0115 -0.0292,-0.0146 -0.0382,0 -0.009,0.0146 0.009,0.0474 0,0.062 -0.0133,0.0217 -0.10661,-0.0258 -0.11454,0 -0.0114,0.037 0.018,0.0948 0,0.12405 -0.018,0.0293 -0.0552,-0.0229 -0.0764,0 -0.1395,0.15109 0.041,0.0908 -0.0764,0.18607 -0.0227,0.0185 -0.0584,-0.0293 -0.0764,0 -0.009,0.0146 0.0114,0.0528 0,0.062 -0.038,0.0309 -0.10698,-0.0246 -0.11454,0 -0.0114,0.037 0.0114,0.0871 0,0.12405 -0.006,0.0185 -0.0325,0.0185 -0.0382,0 -0.0364,-0.11833 0.0438,-0.11952 -0.0382,-0.18607 -0.0109,-0.009 -0.17049,0 -0.19089,0 -0.0127,0 -0.0292,0.0146 -0.0382,0 -0.009,-0.0146 0.0114,-0.0528 0,-0.062 -0.0227,-0.0185 -0.0509,0 -0.0764,0 -0.0127,0 -0.0292,0.0146 -0.0382,0 -0.0191,-0.031 0.0191,-0.15507 0,-0.18608 -0.012,-0.0194 -0.17898,0.0194 -0.1909,0 -0.009,-0.0146 0.009,-0.0474 0,-0.062 -0.009,-0.0146 -0.0268,0.009 -0.0382,0 -0.0161,-0.0131 -0.0211,-0.0528 -0.0382,-0.062 -0.0241,-0.0131 -0.0536,0.0185 -0.0764,0 -0.0114,-0.009 0.009,-0.0474 0,-0.062 -0.009,-0.0146 -0.0292,0.0146 -0.0382,0 -0.018,-0.0293 0.018,-0.0948 0,-0.12405 -0.018,-0.0293 -0.065,0.037 -0.0764,0 0,-0.35147 0.0255,-0.0207 -0.0382,-0.12405 -0.0191,-0.031 0.0191,-0.15506 0,-0.18607 -0.009,-0.0146 -0.0255,0 -0.0382,0 -0.0255,0 -0.0536,0.0185 -0.0764,0 -0.0114,-0.009 0,-0.0414 0,-0.062 0,-0.062 0.0121,-0.12723 0,-0.18607 -0.004,-0.0196 -0.0255,0 -0.0382,0 -0.10181,0 0.0127,0.0207 -0.0382,-0.062 -0.009,-0.0146 -0.0292,0.0146 -0.0382,0 -0.009,-0.0149 0.009,-0.23318 0,-0.2481 -0.009,-0.0146 -0.0325,0.0185 -0.0382,0 -0.0114,-0.037 -0.0255,-0.12404 0,-0.12404 0.0255,0 0,0.16539 0,0.12404 0,-0.062 0,-0.12404 0,-0.18607 0,-0.26877 0.0255,0.33079 -0.0382,0.12405 -0.0114,-0.037 0,-0.0827 0,-0.12405 0,-0.22627 -0.0122,-0.11212 0.1909,-0.31011 z"
       id="path3845"
       inkscape:connector-curvature="0"
       inkscape:export-filename="C:\Users\Jonni\Desktop\web.png"
       inkscape:export-xdpi="87"
       inkscape:export-ydpi="87" />
    <path
       style="fill:#ffffff;fill-opacity:1;stroke:none"
       d="m 372.18771,529.23527 c 0.15272,0 0.30543,0 0.45815,0 0.0382,0 0.0804,0.0278 0.11454,0 0.0255,-0.0207 0.0145,-0.0984 0.0382,-0.12404 0.011,-0.0119 0.19828,0 0.22907,0 0.0127,0 0.0292,0.0146 0.0382,0 0.009,-0.0146 -0.0114,-0.0528 0,-0.062 0.0222,-0.018 0.20658,0.0183 0.22908,0 0.0161,-0.0131 0.0211,-0.0528 0.0382,-0.062 0.0362,-0.0196 0.0764,0 0.11454,0 0.0891,0 0.17817,0 0.26726,0 0.0127,0 0.0255,0 0.0382,0 0.0127,0 0.0292,-0.0146 0.0382,0 0.009,0.0146 -0.009,0.0474 0,0.062 0.009,0.0146 0.0292,-0.0146 0.0382,0 0.009,0.0146 -0.009,0.0474 0,0.062 0.0117,0.0191 0.1791,-0.0192 0.19089,0 0.009,0.0146 -0.009,0.0474 0,0.062 0.009,0.0146 0.0325,-0.0185 0.0382,0 0.0114,0.037 0,0.0827 0,0.12404 0,0.0207 -0.009,0.0474 0,0.062 0.0137,0.0223 0.12802,-0.02 0.15272,0 0.0159,0.0129 -0.0133,0.16442 0,0.18608 0.0128,0.0207 0.0636,-0.0207 0.0764,0 0.009,0.0146 -0.009,0.0474 0,0.062 0.009,0.0146 0.0325,-0.0185 0.0382,0 0.0114,0.037 0,0.0827 0,0.12404 0,0.0207 -0.009,0.0474 0,0.062 0.009,0.0146 0.0292,-0.0146 0.0382,0 0.018,0.0292 -0.018,0.0948 0,0.12406 0.009,0.0146 0.0292,-0.0146 0.0382,0 0.018,0.0292 -0.0228,0.10554 0,0.12404 0.0228,0.0185 0.0584,-0.0293 0.0764,0 0.009,0.0148 0,0.20801 0,0.24809 0,0.062 0,0.12405 0,0.18607 0,0.0413 0.0255,0.12405 0,0.12405 -0.0255,0 0.0255,-0.12405 0,-0.12405 -0.036,0 -0.0464,0.0916 -0.0764,0.12405 -0.0106,0.0115 -0.0292,-0.0146 -0.0382,0 -0.009,0.0146 0,0.0827 0,0.062 0,-0.20674 0.0382,-0.18607 -0.0382,-0.18607 -0.0127,0 -0.0261,-0.006 -0.0382,0 -0.15952,0.0864 -0.0223,0.0105 -0.0764,0.18607 -0.006,0.0185 -0.0255,0 -0.0382,0 -0.032,0 -0.17466,-0.0132 -0.19089,0 -0.0114,0.009 0.009,0.0474 0,0.062 -0.009,0.0149 -0.14353,-0.0149 -0.15272,0 -0.009,0.0146 0.009,0.0474 0,0.062 -0.009,0.0146 -0.0325,0.0185 -0.0382,0 -0.0114,-0.037 0.0255,-0.12406 0,-0.12406 -0.036,0 -0.0464,0.0916 -0.0764,0.12406 -0.0106,0.0115 -0.0292,-0.0146 -0.0382,0 -0.009,0.0146 0.009,0.0474 0,0.062 -0.0133,0.0216 -0.10661,-0.0258 -0.11454,0 -0.0114,0.037 0.018,0.0948 0,0.12405 -0.018,0.0293 -0.0552,-0.0229 -0.0764,0 -0.1395,0.15109 0.041,0.0908 -0.0764,0.18607 -0.0227,0.0185 -0.0584,-0.0293 -0.0764,0 -0.009,0.0146 0.0114,0.0528 0,0.062 -0.038,0.0308 -0.10699,-0.0246 -0.11454,0 -0.0114,0.037 0.0114,0.0871 0,0.12405 -0.006,0.0185 -0.0325,0.0185 -0.0382,0 -0.0364,-0.11834 0.0438,-0.11952 -0.0382,-0.18607 -0.011,-0.009 -0.1705,0 -0.1909,0 -0.0127,0 -0.0292,0.0146 -0.0382,0 -0.009,-0.0146 0.0114,-0.0528 0,-0.062 -0.0228,-0.0185 -0.0509,0 -0.0764,0 -0.0127,0 -0.0292,0.0146 -0.0382,0 -0.0191,-0.031 0.0191,-0.15506 0,-0.18607 -0.012,-0.0194 -0.17898,0.0194 -0.19089,0 -0.009,-0.0146 0.009,-0.0474 0,-0.062 -0.009,-0.0146 -0.0268,0.009 -0.0382,0 -0.0161,-0.0131 -0.0211,-0.0528 -0.0382,-0.062 -0.0241,-0.0131 -0.0536,0.0185 -0.0764,0 -0.0114,-0.009 0.009,-0.0474 0,-0.062 -0.009,-0.0146 -0.0292,0.0146 -0.0382,0 -0.018,-0.0292 0.018,-0.0948 0,-0.12404 -0.018,-0.0293 -0.065,0.037 -0.0764,0 0,-0.35147 0.0255,-0.0207 -0.0382,-0.12405 -0.0191,-0.031 0.0191,-0.15505 0,-0.18606 -0.009,-0.0146 -0.0255,0 -0.0382,0 -0.0255,0 -0.0536,0.0185 -0.0764,0 -0.0114,-0.009 0,-0.0414 0,-0.062 0,-0.062 0.0121,-0.12723 0,-0.18607 -0.004,-0.0196 -0.0255,0 -0.0382,0 -0.10181,0 0.0127,0.0207 -0.0382,-0.062 -0.009,-0.0146 -0.0292,0.0146 -0.0382,0 -0.009,-0.0149 0.009,-0.23317 0,-0.24809 -0.009,-0.0146 -0.0325,0.0185 -0.0382,0 -0.0114,-0.037 -0.0255,-0.12405 0,-0.12405 0.0255,0 0,0.1654 0,0.12405 0,-0.062 0,-0.12405 0,-0.18607 0,-0.26877 0.0255,0.33079 -0.0382,0.12404 -0.0114,-0.037 0,-0.0827 0,-0.12404 0,-0.22627 -0.0122,-0.11212 0.1909,-0.31012 z"
       id="path3845-4"
       inkscape:connector-curvature="0"
       inkscape:export-filename="C:\Users\Jonni\Desktop\web.png"
       inkscape:export-xdpi="87"
       inkscape:export-ydpi="87" />
  </g>
</svg>
