<?xml version="1.0" encoding="UTF-8" standalone="no"?>
<!-- Created with Inkscape (http://www.inkscape.org/) -->

<svg
   xmlns:dc="http://purl.org/dc/elements/1.1/"
   xmlns:cc="http://creativecommons.org/ns#"
   xmlns:rdf="http://www.w3.org/1999/02/22-rdf-syntax-ns#"
   xmlns:svg="http://www.w3.org/2000/svg"
   xmlns="http://www.w3.org/2000/svg"
   xmlns:sodipodi="http://sodipodi.sourceforge.net/DTD/sodipodi-0.dtd"
   xmlns:inkscape="http://www.inkscape.org/namespaces/inkscape"
   width="517"
   height="243"
   id="svg5578"
   version="1.1"
   inkscape:version="0.48.4 r9939"
   sodipodi:docname="logobg.svg">
  <defs
     id="defs5580" />
  <sodipodi:namedview
     id="base"
     pagecolor="#ffffff"
     bordercolor="#666666"
     borderopacity="1.0"
     inkscape:pageopacity="0.0"
     inkscape:pageshadow="2"
     inkscape:zoom="1.979899"
     inkscape:cx="178.68417"
     inkscape:cy="69.836625"
     inkscape:document-units="px"
     inkscape:current-layer="layer1"
     showgrid="false"
     inkscape:window-width="1280"
     inkscape:window-height="962"
     inkscape:window-x="-8"
     inkscape:window-y="-8"
     inkscape:window-maximized="1" />
  <metadata
     id="metadata5583">
    <rdf:RDF>
      <cc:Work
         rdf:about="">
        <dc:format>image/svg+xml</dc:format>
        <dc:type
           rdf:resource="http://purl.org/dc/dcmitype/StillImage" />
        <dc:title />
      </cc:Work>
    </rdf:RDF>
  </metadata>
  <g
     inkscape:label="Livello 1"
     inkscape:groupmode="layer"
     id="layer1"
     transform="translate(0,-809.36218)">
    <g
       id="g6375"
       transform="matrix(1.2069421,0,0,-1.2069421,1.8104131,1043.9112)"
       inkscape:export-filename="C:\Program Files\EasyPHP-5.3.6.0\www\webContab\my\php\img\logobg.png"
       inkscape:export-xdpi="150"
       inkscape:export-ydpi="150"
       style="stroke:#ecffe2;stroke-opacity:1">
      <path
         d="m 0,0 c 3.213,0.398 5.58,1.214 7.101,2.453 1.519,1.236 2.757,3.666 3.714,7.291 l 16.352,60.92 c 0.304,1.237 0.564,2.318 0.782,3.248 0.391,1.9 0.586,3.379 0.586,4.441 0,2.165 -0.609,3.534 -1.824,4.11 -1.217,0.574 -3.844,1.038 -7.883,1.392 l 0,3.514 71.012,0 -5.667,-25.787 -3.584,0.597 c -0.087,6.496 -1.107,11.114 -3.062,13.854 -3.388,4.727 -10.143,7.091 -20.261,7.093 -2.997,0 -5.061,-0.397 -6.189,-1.193 C 49.99,81.138 49.122,79.48 48.471,76.961 L 40.457,46.8 c 8.903,0.265 14.702,1.061 17.395,2.386 2.692,1.326 5.688,5.303 8.991,11.932 l 3.713,-0.464 -9.902,-37.121 -3.649,0.662 c 0.173,1.326 0.281,2.474 0.326,3.447 0.085,0.972 0.128,1.722 0.13,2.254 0,4.462 -1.152,7.667 -3.453,9.612 -2.302,1.943 -7.231,2.915 -14.788,2.917 L 30.425,9.28 C 30.294,8.705 30.184,8.174 30.099,7.689 30.011,7.203 29.968,6.716 29.968,6.231 29.968,3.579 31.076,1.79 33.291,0.862 34.637,0.286 36.722,0 39.545,0 l 0,-3.447 L 0,-3.447 0,0 z"
         style="fill:none;stroke:#ecffe2;stroke-width:3;stroke-linecap:butt;stroke-linejoin:miter;stroke-miterlimit:3.86400007999999980;stroke-opacity:1;stroke-dasharray:none"
         id="path6377"
         inkscape:connector-curvature="0" />
      <g
         id="g6379"
         transform="translate(104.517,50.446)"
         style="stroke:#ecffe2;stroke-opacity:1">
        <path
           d="m 0,0 c -0.827,2.032 -2.368,3.047 -4.626,3.049 -4.821,0 -9.772,-5.812 -14.854,-17.434 -4.474,-10.297 -6.71,-18.186 -6.71,-23.665 0,-2.166 0.521,-4.043 1.564,-5.634 1.085,-1.591 2.496,-2.387 4.234,-2.387 4.431,-0.045 9.447,5.921 15.05,17.898 3.994,10.031 5.991,17.985 5.993,23.864 C 0.651,-2.542 0.434,-1.106 0,0 z"
           style="fill:none;stroke:#ecffe2;stroke-width:3;stroke-linecap:butt;stroke-linejoin:miter;stroke-miterlimit:3.86400007999999980;stroke-opacity:1;stroke-dasharray:none"
           id="path6381"
           inkscape:connector-curvature="0" />
        <g
           id="g6383"
           transform="translate(-30.88,-7.358)"
           style="stroke:#ecffe2;stroke-opacity:1">
          <path
             d="m 0,0 c 8.078,10.739 16.287,16.108 24.626,16.108 3.388,0 5.884,-1.017 7.492,-3.049 0.955,-1.239 1.802,-3.314 2.541,-6.231 l 2.28,7.225 14.854,0.995 -9.446,-31.753 c -1.348,-4.507 -2.303,-7.954 -2.867,-10.341 -1.173,-4.553 -1.759,-7.801 -1.759,-9.744 0,-0.796 0.173,-1.349 0.521,-1.658 0.346,-0.31 0.737,-0.463 1.173,-0.463 0.782,0 1.541,0.285 2.28,0.861 0.737,0.618 1.562,1.479 2.476,2.585 0.433,0.485 1.17,1.39 2.215,2.718 1.042,1.37 1.91,2.517 2.606,3.447 l 2.801,-2.055 c -3.605,-5.392 -7.058,-9.611 -10.358,-12.661 -3.258,-3.049 -6.56,-4.574 -9.903,-4.574 -2.042,0 -4.019,0.775 -5.929,2.32 -1.911,1.546 -2.866,3.822 -2.866,6.828 0,1.148 0.564,3.955 1.694,8.419 0.173,0.176 0,-0.133 -0.521,-0.928 -0.479,-0.796 -1.238,-1.968 -2.281,-3.514 -2.345,-3.625 -5.126,-6.695 -8.339,-9.214 -3.172,-2.519 -6.71,-3.778 -10.619,-3.778 -3.518,0 -6.798,1.348 -9.838,4.043 -3.041,2.696 -4.56,7.269 -4.56,13.722 0,9.987 3.909,20.216 11.727,30.692 z"
             style="fill:none;stroke:#ecffe2;stroke-width:3;stroke-linecap:butt;stroke-linejoin:miter;stroke-miterlimit:3.86400007999999980;stroke-opacity:1;stroke-dasharray:none"
             id="path6385"
             inkscape:connector-curvature="0" />
          <g
             id="g6387"
             transform="translate(67.519,-48.457)"
             style="stroke:#ecffe2;stroke-opacity:1">
            <path
               d="m 0,0 -3.388,0 0.456,18.561 c 0.131,5.479 0.086,10.494 -0.13,15.048 -0.175,4.594 -0.586,9.058 -1.238,13.39 -0.739,4.773 -1.629,7.667 -2.671,8.684 -1,1.015 -2.889,1.522 -5.668,1.524 l 0,3.58 4.3,0.663 c 3.17,0.53 5.753,0.971 7.753,1.325 2.04,0.398 4.971,0.995 8.795,1.79 1.518,-4.862 2.604,-12.706 3.257,-23.532 0.346,-5.436 0.584,-12.661 0.717,-21.677 3.343,3.58 6.492,7.313 9.447,11.203 4.951,6.496 7.426,11.137 7.426,13.921 0,1.591 -0.977,3.468 -2.931,5.634 -1.955,2.165 -2.932,4.353 -2.932,6.563 0,2.341 0.717,4.22 2.15,5.635 1.476,1.412 3.213,2.119 5.212,2.121 2.17,0 4.082,-0.841 5.733,-2.519 1.649,-1.637 2.474,-4.023 2.476,-7.16 0,-5.833 -3.779,-13.986 -11.336,-24.46 C 21.519,22.118 14.854,14.428 7.427,7.225 L 0,0 z"
               style="fill:none;stroke:#ecffe2;stroke-width:3;stroke-linecap:butt;stroke-linejoin:miter;stroke-miterlimit:3.86400007999999980;stroke-opacity:1;stroke-dasharray:none"
               id="path6389"
               inkscape:connector-curvature="0" />
            <g
               id="g6391"
               transform="translate(86.316,61.317)"
               style="stroke:#ecffe2;stroke-opacity:1">
              <path
                 d="m 0,0 c 6.254,-3.625 9.381,-9.79 9.381,-18.494 0,-9.635 -3.605,-18.982 -10.814,-28.041 -7.863,-9.856 -16.853,-14.78 -26.972,-14.782 -5.169,0 -10.077,1.636 -14.724,4.905 -4.605,3.269 -6.905,8.794 -6.905,16.572 0,9.679 3.583,19.046 10.749,28.107 7.861,9.898 16.917,14.847 27.167,14.849 C -7.602,3.116 -3.563,2.076 0,0 z"
                 style="fill:none;stroke:#ecffe2;stroke-width:3;stroke-linecap:butt;stroke-linejoin:miter;stroke-miterlimit:3.86400007999999980;stroke-opacity:1;stroke-dasharray:none"
                 id="path6393"
                 inkscape:connector-curvature="0" />
              <g
                 id="g6395"
                 transform="translate(-33.291,-53.296)"
                 style="stroke:#ecffe2;stroke-opacity:1">
                <path
                   d="m 0,0 c 1.085,-2.519 3.125,-3.778 6.124,-3.778 5.558,0 10.552,6.496 14.984,19.489 3.691,10.914 5.536,20.348 5.538,28.305 0,2.121 -0.261,3.778 -0.782,4.972 -1,2.208 -2.866,3.312 -5.603,3.314 C 13.877,52.302 8.512,45.408 4.17,31.62 0.825,21.146 -0.847,12.44 -0.847,5.502 -0.847,3.159 -0.566,1.326 0,0 z"
                   style="fill:none;stroke:#ecffe2;stroke-width:3;stroke-linecap:butt;stroke-linejoin:miter;stroke-miterlimit:3.86400007999999980;stroke-opacity:1;stroke-dasharray:none"
                   id="path6397"
                   inkscape:connector-curvature="0" />
                <g
                   id="g6399"
                   transform="translate(36.579,-6.099)"
                   style="stroke:#ecffe2;stroke-opacity:1">
                  <path
                     d="m 0,0 c 3.909,12.947 7.101,24.084 9.577,33.41 2.692,10.03 4.037,15.996 4.039,17.898 0,1.678 -0.543,2.761 -1.628,3.248 -1.088,0.485 -2.954,0.727 -5.603,0.729 l 0,3.579 c 5.558,0.353 10.248,0.817 14.072,1.393 2.476,0.352 6.688,1.104 12.639,2.253 l -7.427,-24.063 0.586,-0.132 c 3.821,7.511 6.884,12.837 9.186,15.976 4.039,5.479 7.926,8.217 11.662,8.219 2.606,0 4.516,-0.884 5.733,-2.651 1.258,-1.769 1.887,-3.735 1.889,-5.9 0,-2.608 -0.696,-4.951 -2.085,-7.026 -1.347,-2.078 -3.237,-3.116 -5.667,-3.116 -1.088,0 -2.108,0.219 -3.063,0.663 -0.912,0.441 -1.693,1.104 -2.345,1.988 l -1.238,1.591 c -0.217,0.266 -0.456,0.485 -0.716,0.663 -0.218,0.176 -0.521,0.263 -0.912,0.265 -1.694,0 -3.909,-2.342 -6.646,-7.026 C 29.317,37.275 27.015,32.502 25.148,27.643 23.845,24.282 22.236,19.509 20.327,13.324 18.415,7.136 17.004,2.695 16.092,0 L 0,0 z"
                     style="fill:none;stroke:#ecffe2;stroke-width:3;stroke-linecap:butt;stroke-linejoin:miter;stroke-miterlimit:3.86400007999999980;stroke-opacity:1;stroke-dasharray:none"
                     id="path6401"
                     inkscape:connector-curvature="0" />
                  <g
                     id="g6403"
                     transform="translate(53.345,13.059)"
                     style="stroke:#ecffe2;stroke-opacity:1">
                    <path
                       d="m 0,0 c 0.303,1.369 0.759,3.18 1.368,5.436 l 8.013,30.493 c 0.086,0.352 0.151,0.706 0.196,1.06 0.085,0.352 0.128,0.684 0.13,0.994 0,1.811 -0.566,2.938 -1.694,3.381 -1.13,0.441 -3.192,0.727 -6.189,0.862 l 0,3.58 c 2.518,0.176 6.167,0.528 10.945,1.06 4.821,0.574 8.229,1.059 10.228,1.459 L 28.731,49.452 18.372,10.805 C 17.503,7.491 16.916,5.191 16.613,3.911 15.831,0.64 15.44,-1.481 15.44,-2.453 c 0,-0.973 0.216,-1.613 0.652,-1.922 0.433,-0.265 0.91,-0.398 1.433,-0.398 1.346,0 3.017,1.171 5.016,3.514 1.998,2.34 3.757,4.793 5.277,7.358 L 30.75,4.176 C 26.406,-2.32 23.083,-6.695 20.782,-8.949 c -3.778,-3.712 -7.818,-5.568 -12.117,-5.568 -2.433,0 -4.626,0.752 -6.58,2.253 -1.912,1.546 -2.867,3.889 -2.867,7.027 0,1.104 0.261,2.849 0.782,5.237 z"
                       style="fill:none;stroke:#ecffe2;stroke-width:3;stroke-linecap:butt;stroke-linejoin:miter;stroke-miterlimit:3.86400007999999980;stroke-opacity:1;stroke-dasharray:none"
                       id="path6405"
                       inkscape:connector-curvature="0" />
                    <g
                       id="g6407"
                       transform="translate(31.337,77.094)"
                       style="stroke:#ecffe2;stroke-opacity:1">
                      <path
                         d="m 0,0 c 1.736,-1.769 2.604,-3.911 2.606,-6.43 0,-2.519 -0.87,-4.686 -2.606,-6.496 -1.739,-1.77 -3.844,-2.652 -6.32,-2.652 -2.475,0 -4.605,0.882 -6.384,2.652 -1.739,1.81 -2.606,3.975 -2.606,6.496 0,2.519 0.867,4.661 2.606,6.43 1.779,1.767 3.907,2.649 6.384,2.651 C -3.844,2.651 -1.739,1.767 0,0 z"
                         style="fill:none;stroke:#ecffe2;stroke-width:3;stroke-linecap:butt;stroke-linejoin:miter;stroke-miterlimit:3.86400007999999980;stroke-opacity:1;stroke-dasharray:none"
                         id="path6409"
                         inkscape:connector-curvature="0" />
                      <g
                         id="g6411"
                         transform="translate(4.935,-78.685)"
                         style="stroke:#ecffe2;stroke-opacity:1">
                        <path
                           d="m 0,0 c 0.303,1.502 0.89,3.843 1.759,7.027 l 10.033,36.79 -6.776,0 0,4.706 c 4.385,1.811 8.077,3.8 11.075,5.966 5.298,3.8 9.728,8.682 13.291,14.65 l 4.821,0 -5.277,-19.687 9.577,0 0,-5.635 -11.141,0 -8.599,-31.421 C 17.981,9.612 17.372,7.292 16.939,5.436 16.2,2.254 15.831,0.066 15.831,-1.127 c 0,-0.841 0.238,-1.392 0.717,-1.657 0.521,-0.265 0.954,-0.398 1.302,-0.398 1.259,0 2.865,1.104 4.822,3.315 1.997,2.208 3.821,4.727 5.472,7.557 L 31.076,5.767 C 27.122,-0.331 23.952,-4.574 21.564,-6.96 c -4.039,-3.978 -8.319,-5.966 -12.834,-5.966 -2.606,0 -4.778,0.861 -6.515,2.585 -1.739,1.767 -2.606,3.998 -2.606,6.695 0,0.928 0.13,2.142 0.391,3.646 z"
                           style="fill:none;stroke:#ecffe2;stroke-width:3;stroke-linecap:butt;stroke-linejoin:miter;stroke-miterlimit:3.86400007999999980;stroke-opacity:1;stroke-dasharray:none"
                           id="path6413"
                           inkscape:connector-curvature="0" />
                        <g
                           id="g6415"
                           transform="translate(83.272,42.425)"
                           style="stroke:#ecffe2;stroke-opacity:1">
                          <path
                             d="m 0,0 c -0.827,2.032 -2.368,3.047 -4.626,3.049 -4.821,0 -9.772,-5.812 -14.854,-17.434 -4.475,-10.297 -6.71,-18.186 -6.71,-23.665 0,-2.166 0.521,-4.043 1.564,-5.634 1.085,-1.591 2.496,-2.387 4.234,-2.387 4.431,-0.045 9.447,5.921 15.05,17.898 3.994,10.031 5.991,17.985 5.993,23.864 C 0.651,-2.542 0.434,-1.106 0,0 z"
                             style="fill:none;stroke:#ecffe2;stroke-width:3;stroke-linecap:butt;stroke-linejoin:miter;stroke-miterlimit:3.86400007999999980;stroke-opacity:1;stroke-dasharray:none"
                             id="path6417"
                             inkscape:connector-curvature="0" />
                          <g
                             id="g6419"
                             transform="translate(-30.881,-7.358)"
                             style="stroke:#ecffe2;stroke-opacity:1">
                            <path
                               d="m 0,0 c 8.078,10.739 16.287,16.108 24.626,16.108 3.388,0 5.884,-1.017 7.493,-3.049 0.954,-1.239 1.801,-3.314 2.54,-6.231 l 2.281,7.225 14.854,0.995 -9.447,-31.753 c -1.348,-4.507 -2.303,-7.954 -2.867,-10.341 -1.172,-4.553 -1.759,-7.801 -1.759,-9.744 0,-0.796 0.173,-1.349 0.522,-1.658 0.346,-0.31 0.737,-0.463 1.172,-0.463 0.782,0 1.541,0.285 2.28,0.861 0.737,0.618 1.562,1.479 2.476,2.585 0.434,0.485 1.171,1.39 2.215,2.718 1.043,1.37 1.91,2.517 2.606,3.447 l 2.802,-2.055 c -3.606,-5.392 -7.059,-9.611 -10.359,-12.661 -3.258,-3.049 -6.56,-4.574 -9.903,-4.574 -2.042,0 -4.019,0.775 -5.928,2.32 -1.912,1.546 -2.867,3.822 -2.867,6.828 0,1.148 0.564,3.955 1.694,8.419 0.173,0.176 0,-0.133 -0.521,-0.928 -0.479,-0.796 -1.238,-1.968 -2.28,-3.514 -2.346,-3.625 -5.127,-6.695 -8.34,-9.214 -3.172,-2.519 -6.71,-3.778 -10.619,-3.778 -3.518,0 -6.798,1.348 -9.837,4.043 -3.042,2.696 -4.561,7.269 -4.561,13.722 0,9.987 3.909,20.216 11.727,30.692 z"
                               style="fill:none;stroke:#ecffe2;stroke-width:3;stroke-linecap:butt;stroke-linejoin:miter;stroke-miterlimit:3.86400007999999980;stroke-opacity:1;stroke-dasharray:none"
                               id="path6421"
                               inkscape:connector-curvature="0" />
                            <g
                               id="g6423"
                               transform="translate(-274.859,62.594)"
                               style="stroke:#ecffe2;stroke-opacity:1">
                              <path
                                 d="m 0,0 c 5.176,0.397 9.007,1.193 11.49,2.386 2.48,1.193 4.538,3.646 6.17,7.358 l 26.703,60.92 c 0.778,1.723 1.347,3.159 1.702,4.309 0.426,1.193 0.639,2.231 0.639,3.115 0,2.297 -1.031,3.733 -3.086,4.309 -2.057,0.617 -6.349,1.104 -12.872,1.458 l 0,3.514 69.151,0 0,-3.514 C 92.307,83.368 87.2,82.617 84.577,81.602 81.951,80.628 79.753,78.132 77.981,74.111 L 49.682,9.28 C 49.397,8.572 49.151,7.909 48.938,7.292 48.795,6.672 48.725,5.943 48.725,5.104 48.725,3.6 49.789,2.519 51.917,1.856 54.044,1.237 57.023,0.905 60.853,0.928 71.142,0.99 74.038,2.838 84.896,6.02 95.82,9.203 105.43,15.148 113.734,23.857 L 118.948,23.26 106.178,-3.13 0,-3.447 0,0 z"
                                 style="fill:none;stroke:#ecffe2;stroke-width:3;stroke-linecap:butt;stroke-linejoin:miter;stroke-miterlimit:3.86400007999999980;stroke-opacity:1;stroke-dasharray:none"
                                 id="path6425"
                                 inkscape:connector-curvature="0" />
                              <g
                                 id="g6427"
                                 transform="translate(191.01,50.446)"
                                 style="stroke:#ecffe2;stroke-opacity:1">
                                <path
                                   d="m 0,0 c -1.35,2.032 -3.867,3.047 -7.554,3.049 -7.872,0 -15.957,-5.813 -24.256,-17.434 -7.307,-10.297 -10.957,-18.186 -10.957,-23.665 0,-2.167 0.851,-4.044 2.553,-5.634 1.772,-1.591 4.076,-2.387 6.915,-2.387 7.234,-0.046 15.426,5.92 24.575,17.898 6.523,10.03 9.784,17.985 9.788,23.864 C 1.064,-2.542 0.708,-1.107 0,0 z"
                                   style="fill:none;stroke:#ecffe2;stroke-width:3;stroke-linecap:butt;stroke-linejoin:miter;stroke-miterlimit:3.86400007999999980;stroke-opacity:1;stroke-dasharray:none"
                                   id="path6429"
                                   inkscape:connector-curvature="0" />
                                <g
                                   id="g6431"
                                   transform="translate(-50.427,-7.358)"
                                   style="stroke:#ecffe2;stroke-opacity:1">
                                <path
                                   d="m 0,0 c 13.192,10.739 26.597,16.108 40.214,16.108 5.532,0 9.608,-1.017 12.234,-3.049 1.56,-1.239 2.943,-3.315 4.149,-6.231 l 3.724,7.225 24.256,0.995 -15.426,-31.753 c -2.201,-4.508 -3.76,-7.954 -4.681,-10.341 -1.915,-4.553 -2.872,-7.801 -2.872,-9.744 0,-0.796 0.282,-1.349 0.851,-1.658 0.565,-0.31 1.203,-0.464 1.915,-0.464 1.276,0 2.516,0.286 3.723,0.862 1.204,0.618 2.55,1.479 4.043,2.585 0.708,0.485 1.911,1.39 3.617,2.718 1.702,1.37 3.119,2.517 4.256,3.447 l 4.574,-2.054 c -5.888,-5.393 -11.526,-9.613 -16.915,-12.662 -5.32,-3.049 -10.712,-4.574 -16.171,-4.574 -3.334,0 -6.563,0.775 -9.681,2.32 -3.122,1.546 -4.681,3.822 -4.681,6.828 0,1.148 0.921,3.955 2.766,8.419 0.282,0.176 0,-0.133 -0.851,-0.928 -0.782,-0.796 -2.021,-1.968 -3.724,-3.514 -3.83,-3.625 -8.371,-6.695 -13.617,-9.214 -5.18,-2.519 -10.958,-3.778 -17.341,-3.778 -5.745,0 -11.101,1.348 -16.065,4.043 -4.966,2.695 -7.447,7.269 -7.447,13.722 0,9.987 6.384,20.216 19.15,30.692 z"
                                   style="fill:none;stroke:#ecffe2;stroke-width:3;stroke-linecap:butt;stroke-linejoin:miter;stroke-miterlimit:3.86400007999999980;stroke-opacity:1;stroke-dasharray:none"
                                   id="path6433"
                                   inkscape:connector-curvature="0" />
                                </g>
                              </g>
                            </g>
                          </g>
                        </g>
                      </g>
                    </g>
                  </g>
                </g>
              </g>
            </g>
          </g>
        </g>
      </g>
    </g>
  </g>
</svg>
